<svg xmlns="http://www.w3.org/2000/svg" width="900" height="430" viewBox="0 0 900 430">
  <defs>
    <linearGradient id="bg" x1="0" x2="1" y1="0" y2="1">
      <stop offset="0%" stop-color="#fff0f7"/>
      <stop offset="100%" stop-color="#eef7ff"/>
    </linearGradient>
    <linearGradient id="bar" x1="0" x2="1">
      <stop offset="0%" stop-color="#55cdfc"/>
      <stop offset="50%" stop-color="#f7a8c8"/>
      <stop offset="100%" stop-color="#ffffff"/>
    </linearGradient>
  </defs>

  <rect x="8" y="8" width="884" height="414" rx="28" fill="url(#bg)" stroke="#f7a8c8" stroke-width="3"/>

  <text x="52" y="62" font-family="Arial, sans-serif" font-size="28" font-weight="700" fill="#3d3340">
    🐰 estrobunny_xo.exe — skill tree
  </text>
  <text x="54" y="91" font-family="Arial, sans-serif" font-size="14" fill="#806b7c">
    chaotic developer stats // definitely not scientifically measured ✦
  </text>

  <!-- decorative bunny -->
  <text x="780" y="76" font-family="Arial, sans-serif" font-size="42">🐇</text>

  <!-- rows -->
  <g font-family="Arial, sans-serif" font-size="16" fill="#3d3340">
    <text x="54" y="135">C++</text>
    <text x="54" y="180">JavaScript</text>
    <text x="54" y="225">React</text>
    <text x="54" y="270">Python</text>
    <text x="54" y="315">CSS</text>
    <text x="54" y="360">Git</text>
    <text x="54" y="405">Sanity</text>
  </g>

  <!-- bars -->
  <g fill="#eadfe7">
    <rect x="190" y="121" width="560" height="18" rx="9"/>
    <rect x="190" y="166" width="560" height="18" rx="9"/>
    <rect x="190" y="211" width="560" height="18" rx="9"/>
    <rect x="190" y="256" width="560" height="18" rx="9"/>
    <rect x="190" y="301" width="560" height="18" rx="9"/>
    <rect x="190" y="346" width="560" height="18" rx="9"/>
    <rect x="190" y="391" width="560" height="18" rx="9"/>
  </g>

  <g fill="url(#bar)">
    <rect x="190" y="121" width="336" height="18" rx="9"/>
    <rect x="190" y="166" width="448" height="18" rx="9"/>
    <rect x="190" y="211" width="420" height="18" rx="9"/>
    <rect x="190" y="256" width="420" height="18" rx="9"/>
    <rect x="190" y="301" width="476" height="18" rx="9"/>
    <rect x="190" y="346" width="392" height="18" rx="9"/>
    <rect x="190" y="391" width="56" height="18" rx="9"/>
  </g>

  <g font-family="Arial, sans-serif" font-size="14" font-weight="700" fill="#3d3340" text-anchor="end">
    <text x="790" y="136">60%</text>
    <text x="790" y="181">80%</text>
    <text x="790" y="226">75%</text>
    <text x="790" y="271">75%</text>
    <text x="790" y="316">85%</text>
    <text x="790" y="361">70%</text>
    <text x="790" y="406">10%</text>
  </g>

  <text x="52" y="34" font-family="Arial, sans-serif" font-size="13" fill="#55a9c9">✦ ✦ ✦</text>
  <text x="820" y="395" font-family="Arial, sans-serif" font-size="22" fill="#f7a8c8">♡</text>
</svg>